<svg width="20" height="20" viewBox="0 0 20 20" fill="none" xmlns="http://www.w3.org/2000/svg">
<path d="M9 0L9 20H10L10 0H9Z" fill="black"/>
<path d="M0 3.5C0 2.67157 0.671573 2 1.5 2H6.5V3H1.5C1.22386 3 1 3.22386 1 3.5V16.5C1 16.7761 1.22386 17 1.5 17H6.5V18H1.5C0.671573 18 0 17.3284 0 16.5V3.5Z" fill="black"/>
<path d="M20 16.5C20 17.3284 19.3284 18 18.5 18H12.5V17H18.5C18.7761 17 19 16.7761 19 16.5L19 3.5C19 3.22386 18.7761 3 18.5 3L12.5 3V2L18.5 2C19.3284 2 20 2.67157 20 3.5L20 16.5Z" fill="black"/>
<path d="M6.35355 6.64648L7.06066 7.35359L4.41421 10L7.06066 12.6465L6.35355 13.3536L3 10L6.35355 6.64648Z" fill="black"/>
<path d="M11.9999 12.6464L12.707 13.3535L16.0605 9.99996L12.707 6.64641L11.9999 7.35352L14.6463 9.99996L11.9999 12.6464Z" fill="black"/>
</svg>
