<?xml version="1.0" standalone="no"?>
<!DOCTYPE svg PUBLIC "-//W3C//DTD SVG 20010904//EN"
 "http://www.w3.org/TR/2001/REC-SVG-20010904/DTD/svg10.dtd">
<svg version="1.0" xmlns="http://www.w3.org/2000/svg"
 width="1280.000000pt" height="1014.000000pt" viewBox="0 0 1280.000000 1014.000000"
 preserveAspectRatio="xMidYMid meet">
<metadata>
Created by potrace 1.16, written by Peter Selinger 2001-2019
</metadata>
<g transform="translate(0.000000,1014.000000) scale(0.100000,-0.100000)"
fill="#000000" stroke="none">
<path d="M2978 10134 c-5 -4 -8 -18 -8 -30 0 -21 -3 -22 -32 -13 -71 20 -93
13 -250 -83 -180 -109 -237 -154 -382 -296 -169 -166 -259 -298 -306 -447 -12
-38 -24 -77 -26 -85 -4 -10 -11 -7 -27 13 -12 15 -40 34 -62 41 -38 13 -40 17
-51 70 -6 31 -14 59 -17 63 -11 10 -121 -16 -147 -36 -14 -10 -37 -42 -52 -72
-38 -74 -39 -170 -3 -266 36 -96 128 -266 186 -347 l50 -68 -26 -40 -27 -40
27 -28 c15 -15 22 -30 17 -34 -5 -3 -79 -35 -165 -70 -210 -88 -336 -152 -434
-222 -193 -139 -425 -371 -563 -564 -37 -52 -102 -135 -144 -183 -113 -131
-161 -197 -249 -336 -116 -186 -305 -577 -286 -595 2 -3 25 0 49 5 51 12 42
20 114 -106 27 -47 54 -85 60 -85 6 0 24 21 41 48 43 69 165 212 219 258 l46
40 69 -10 c37 -5 76 -6 85 -3 9 4 28 32 42 62 34 79 38 81 327 113 l68 7 69
145 70 145 136 3 137 3 -7 -33 c-45 -218 -85 -558 -93 -783 -6 -177 4 -265 67
-637 19 -107 20 -110 70 -166 28 -31 65 -78 83 -104 18 -26 40 -48 49 -48 10
0 33 13 51 30 19 16 37 30 40 30 2 0 24 -29 47 -65 24 -36 51 -70 61 -75 10
-6 41 -10 69 -10 49 0 54 -3 132 -71 79 -70 82 -71 124 -65 24 3 44 2 44 -3 0
-28 -228 -859 -485 -1771 -221 -783 -244 -870 -279 -1035 -58 -281 -84 -555
-116 -1250 -11 -242 -28 -530 -36 -640 -9 -110 -17 -231 -19 -269 -3 -46 -10
-74 -21 -87 -10 -11 -14 -22 -10 -27 10 -9 668 -8 717 2 34 6 38 11 69 84 17
42 66 145 109 227 204 398 522 813 951 1246 451 454 926 860 2095 1794 798
637 844 673 1267 988 437 326 582 444 813 665 110 105 201 190 202 189 1 -2
-13 -77 -32 -167 -46 -223 -85 -455 -85 -502 0 -32 9 -50 50 -98 31 -38 51
-73 55 -95 3 -19 7 -50 10 -68 4 -28 13 -37 60 -60 l55 -27 -19 -37 c-21 -43
-51 -138 -51 -164 0 -13 13 -22 40 -30 52 -16 111 -66 156 -135 31 -47 80 -94
97 -94 3 0 20 26 37 58 17 31 39 67 50 80 18 22 20 22 50 7 60 -31 80 -19 120
71 50 115 63 132 115 145 65 16 74 31 85 148 5 57 14 120 20 142 l11 39 74 0
c93 0 93 1 26 133 l-49 97 61 0 c115 0 107 -12 100 169 l-6 158 37 22 c20 13
39 22 41 19 2 -2 -7 -55 -21 -118 -14 -63 -28 -130 -31 -148 l-6 -33 44 7 c24
4 91 20 148 36 57 16 105 27 107 26 1 -2 -25 -72 -58 -156 -33 -84 -58 -156
-54 -159 9 -9 114 43 217 107 70 44 79 47 74 27 -4 -12 -27 -86 -52 -165 -25
-78 -43 -146 -39 -149 12 -12 81 54 116 111 44 74 48 64 50 -109 l1 -130 36
40 c35 39 107 144 116 168 7 19 17 3 42 -69 13 -38 29 -69 36 -69 6 0 44 61
84 135 40 74 77 136 82 137 6 2 14 -16 19 -39 13 -63 33 -55 63 27 37 100 37
99 75 75 42 -25 52 -25 59 0 3 11 13 20 22 20 9 0 29 8 43 18 51 35 53 34 28
-17 -14 -28 -26 -57 -26 -65 0 -9 17 -24 38 -35 46 -24 63 -42 96 -108 28 -57
37 -60 108 -44 l37 9 3 -62 3 -61 53 -3 c30 -2 60 2 67 8 7 6 23 43 35 83 27
89 60 167 71 167 7 0 21 -58 34 -143 9 -54 25 -43 60 42 l30 73 19 -24 c10
-13 30 -47 44 -77 24 -53 25 -54 38 -30 7 13 32 75 55 136 22 62 45 111 50
108 4 -3 21 -28 36 -56 25 -48 28 -50 37 -29 7 15 6 69 -3 163 -7 78 -15 192
-18 253 l-5 110 36 28 c20 15 36 35 36 46 0 36 -62 196 -116 299 l-55 103 38
49 c20 27 38 47 40 46 1 -2 -5 -29 -14 -60 -9 -32 -13 -61 -8 -65 4 -4 31 19
60 51 49 56 53 58 58 35 4 -12 7 -63 8 -113 1 -135 6 -139 63 -55 27 38 52 73
57 76 10 6 -21 -77 -51 -136 -11 -22 -20 -42 -20 -45 0 -16 32 2 98 57 63 52
74 58 69 38 -48 -172 -55 -229 -23 -184 12 16 13 12 4 -34 -5 -30 -8 -66 -6
-80 3 -25 8 -20 62 53 82 112 79 111 71 15 l-7 -85 61 60 62 60 -36 -90 c-19
-50 -34 -97 -33 -105 2 -10 24 4 66 43 34 31 65 57 68 57 4 0 4 -52 1 -115 -3
-63 -3 -115 1 -115 3 0 35 28 69 62 39 39 63 56 63 46 0 -34 41 -148 54 -148
7 0 26 24 42 53 l29 52 6 -95 c4 -52 7 -133 8 -180 l2 -85 34 39 c33 37 34 38
39 15 3 -13 7 -35 8 -48 10 -89 68 40 75 169 11 175 -72 456 -232 784 -100
206 -218 378 -451 658 -156 186 -521 555 -738 744 -139 121 -165 148 -198 209
l-38 70 24 21 c16 15 33 20 50 17 29 -6 31 1 12 36 -13 24 -11 61 4 61 11 0
102 -100 142 -156 27 -38 33 -42 39 -27 4 10 8 35 8 55 1 20 5 39 11 43 12 7
81 -118 122 -223 17 -45 37 -81 42 -79 13 4 40 101 57 202 l13 73 53 -91 c30
-51 63 -111 75 -134 39 -77 47 -50 24 72 -8 39 -13 72 -11 73 2 2 34 -58 72
-133 l68 -137 7 108 c13 189 6 178 58 100 25 -38 63 -103 85 -145 22 -41 45
-77 52 -79 15 -4 27 75 20 136 l-5 47 45 -50 c89 -99 127 -151 159 -220 20
-44 35 -64 38 -55 3 8 18 63 34 123 l28 107 55 -57 c30 -32 79 -86 108 -120
29 -35 59 -63 66 -63 9 0 15 23 20 78 3 42 7 86 8 97 1 11 29 -42 62 -118 l60
-138 5 90 5 90 55 -121 c72 -158 85 -163 77 -29 -3 55 -4 101 -2 101 2 0 36
-48 75 -106 50 -74 75 -102 80 -93 4 8 13 55 20 104 7 50 15 84 18 76 3 -8 14
-78 26 -155 12 -78 26 -141 31 -140 14 1 48 71 55 114 l6 35 21 -40 c12 -22
26 -60 32 -85 7 -25 14 -52 17 -60 10 -27 21 20 29 123 4 54 9 96 11 95 1 -2
26 -80 54 -173 27 -93 52 -171 55 -173 11 -11 15 8 25 103 12 119 31 225 40
225 3 0 12 -28 19 -62 31 -151 53 -238 61 -233 4 3 11 44 15 91 l7 87 37 -89
c52 -123 63 -144 74 -144 9 0 4 101 -9 170 -8 45 26 -53 48 -135 11 -44 23
-84 26 -90 11 -18 21 67 21 185 1 93 -2 120 -17 141 -57 85 -394 413 -554 538
-298 235 -682 406 -1201 537 -77 19 -155 41 -173 49 l-33 13 29 78 c16 42 33
81 39 87 6 6 35 -17 79 -62 65 -67 92 -85 92 -61 0 18 22 11 84 -29 109 -68
298 -173 303 -167 3 3 -22 37 -56 77 -34 39 -61 73 -59 74 2 2 39 -5 83 -15
107 -26 119 -26 112 3 -2 12 -21 57 -40 100 -20 42 -35 77 -32 77 2 0 43 -25
91 -55 49 -30 92 -55 96 -55 16 0 7 20 -24 57 -18 21 -39 46 -47 57 -9 10 56
-17 144 -61 88 -44 170 -83 183 -87 30 -10 29 14 -3 44 -14 13 -24 25 -22 26
2 2 31 -6 66 -16 34 -11 73 -20 87 -20 16 0 53 29 119 91 52 50 95 97 95 104
0 7 -39 28 -87 45 -190 70 -453 159 -547 186 -86 25 -103 34 -135 68 -20 22
-51 55 -70 74 -18 18 -32 35 -30 37 7 6 159 25 205 25 24 0 44 4 44 9 0 12
-149 79 -262 117 -244 83 -628 143 -917 145 -105 0 -131 3 -113 11 12 6 22 16
22 22 0 6 -28 39 -62 74 l-63 64 50 -25 c54 -26 100 -42 153 -51 33 -6 34 -5
61 57 16 34 38 92 50 129 l22 67 108 -6 c101 -5 109 -4 114 13 3 10 13 51 22
89 28 114 29 115 140 115 l95 0 0 48 c0 86 -36 122 -158 161 l-71 22 -16 55
c-8 29 -20 54 -26 54 -5 0 -119 -27 -252 -59 -244 -60 -383 -103 -469 -147
l-46 -23 -13 -93 c-7 -51 -14 -88 -15 -83 -2 6 -8 29 -14 53 -13 50 0 50 -157
-5 -110 -38 -114 -42 -87 -95 l16 -31 -32 23 c-28 20 -34 21 -57 9 -33 -18
-161 -128 -364 -314 -199 -182 -278 -249 -284 -243 -3 3 1 37 10 77 8 40 15
89 15 110 0 33 -4 40 -30 51 -16 7 -56 15 -89 19 -34 4 -63 10 -66 13 -7 6 11
275 21 320 5 23 1 29 -35 47 -33 17 -59 21 -148 21 l-108 0 -22 38 c-11 20
-65 84 -118 141 -53 57 -107 118 -121 137 -29 37 -55 48 -167 65 -92 14 -213
7 -279 -16 -52 -18 -55 -24 -34 -58 7 -12 16 -41 19 -64 l5 -43 -97 0 c-148 0
-279 -40 -383 -118 l-63 -47 90 -7 c141 -12 132 -6 93 -63 -18 -27 -45 -65
-58 -84 l-25 -33 34 -27 c142 -110 135 -102 150 -173 l14 -67 101 -42 c143
-59 204 -79 244 -79 l34 0 -32 -37 c-30 -34 -76 -120 -68 -128 1 -1 30 -20 63
-40 68 -42 67 -42 -69 14 -583 242 -1432 426 -1876 408 -371 -16 -923 -161
-1254 -330 -153 -78 -476 -300 -476 -327 0 -5 4 -12 10 -15 15 -9 261 -43 368
-51 l97 -6 65 38 c36 20 153 91 260 157 107 66 206 126 220 134 25 15 25 15
-1 -8 -15 -13 -63 -55 -108 -93 -77 -66 -101 -96 -64 -82 37 15 283 158 368
215 49 33 91 58 93 56 2 -2 -27 -62 -64 -133 -38 -72 -66 -133 -62 -137 9 -9
242 112 430 224 l36 22 -13 -58 c-8 -32 -21 -75 -30 -96 -9 -22 -15 -43 -13
-48 4 -11 122 44 167 78 l34 26 61 -31 c33 -18 83 -44 110 -59 43 -23 63 -27
160 -31 142 -6 155 -12 87 -46 -186 -95 -380 -243 -514 -395 -129 -146 -256
-410 -291 -603 -14 -76 46 -28 137 110 23 34 44 62 48 62 7 0 52 -67 61 -91 5
-13 -14 -31 -75 -71 -105 -70 -188 -137 -309 -249 l-97 -89 -110 77 c-60 43
-107 81 -103 85 4 3 16 8 27 10 41 7 25 33 -53 85 -42 28 -87 56 -99 62 -13 7
-23 15 -23 19 1 4 28 19 62 35 59 26 62 27 81 10 11 -10 39 -48 63 -85 47 -72
76 -93 173 -122 30 -9 72 -16 92 -16 36 0 38 2 44 38 4 20 13 59 20 87 17 60
25 51 -165 214 -335 288 -515 419 -695 506 -134 65 -369 162 -655 271 -90 34
-166 66 -167 71 -2 5 10 16 26 26 22 13 53 17 131 17 92 0 101 2 97 18 -20 73
-23 69 51 76 126 13 118 21 -68 70 -65 17 -33 21 38 5 47 -11 51 -11 94 19 24
17 78 58 119 91 85 71 145 96 258 110 101 13 144 31 167 70 10 17 21 31 24 31
3 0 22 -16 41 -36 39 -41 54 -41 160 2 83 33 129 62 129 80 0 22 -308 168
-462 219 -194 63 -350 93 -559 106 -166 10 -445 1 -551 -17 -37 -6 -38 -6 -38
24 0 17 5 43 10 58 10 24 14 26 53 21 23 -3 52 -9 65 -13 38 -11 27 25 -37
122 -77 116 -94 132 -167 145 -90 17 -93 19 -56 35 24 10 38 25 49 53 12 32
25 43 62 59 25 11 55 22 66 24 18 3 20 11 19 69 -1 84 -23 125 -88 160 -56 31
-68 46 -54 69 6 10 8 24 5 33 -9 23 -160 93 -253 118 -81 22 -273 37 -286 23z
m5162 -2563 c0 -5 -51 -35 -112 -66 -62 -32 -181 -95 -263 -141 -162 -90 -725
-362 -725 -349 0 19 752 413 990 518 122 54 110 49 110 38z m-3260 -921 c38
-65 39 -65 127 -98 123 -46 120 -43 95 -87 -12 -20 -22 -38 -22 -41 0 -11 21
-2 47 20 l28 24 -35 -108 -35 -108 -79 72 c-43 39 -102 91 -131 116 -56 47
-56 59 0 60 37 0 75 10 75 19 0 4 -28 38 -61 76 -75 84 -99 122 -99 155 l1 25
25 -30 c14 -16 42 -59 64 -95z m2774 -139 l87 -84 -20 -116 c-27 -155 -36
-251 -24 -251 16 0 109 103 149 166 l37 58 15 -32 c15 -31 15 -33 -32 -102
-135 -204 -419 -574 -590 -770 -112 -129 -348 -368 -415 -420 l-44 -34 8 39
c4 22 10 80 14 130 l6 89 40 12 c22 7 66 13 97 13 68 1 82 12 98 83 7 29 44
133 82 231 86 222 105 295 118 460 12 159 37 349 50 383 18 45 81 137 90 128
4 -5 18 -38 31 -74 12 -36 25 -69 29 -73 12 -14 30 51 36 127 2 39 7 95 10
125 l6 53 18 -28 c9 -16 56 -67 104 -113z m-1333 119 c18 -10 13 -16 -48 -66
-38 -30 -180 -164 -318 -298 l-250 -243 0 131 0 131 50 -27 c28 -15 62 -28 77
-28 24 0 29 7 57 80 17 43 31 84 31 90 0 6 26 10 60 10 86 0 121 18 164 83 38
57 127 147 146 147 6 0 20 -5 31 -10z m-1646 -678 l46 -79 102 -32 c56 -17
114 -31 129 -31 14 0 114 -45 221 -100 107 -55 202 -100 210 -100 21 0 67 61
67 89 0 12 -14 49 -31 82 -17 34 -28 67 -25 75 6 15 108 20 153 8 23 -6 23 -7
-10 -46 -67 -83 -77 -100 -66 -120 14 -26 109 -78 143 -78 16 0 37 7 47 16 15
14 20 13 50 -5 49 -30 66 -26 101 24 32 46 48 50 48 12 1 -64 5 -67 101 -67
105 0 102 -3 114 123 8 79 25 116 25 53 0 -56 21 -137 37 -143 8 -3 41 2 74
12 32 10 61 16 64 14 2 -3 -2 -29 -10 -59 -27 -102 -65 -344 -71 -440 l-5 -95
28 66 28 66 2 -206 c2 -170 6 -225 25 -315 13 -62 29 -111 36 -114 17 -5 51
75 59 137 9 76 13 78 77 37 31 -20 56 -40 56 -45 0 -5 -264 -202 -587 -437
-1692 -1232 -2091 -1546 -2729 -2145 -384 -360 -744 -752 -1158 -1259 -88
-107 -187 -226 -220 -263 -71 -82 -67 -86 -93 96 -15 99 -18 195 -18 512 0
382 8 552 41 820 22 190 28 214 170 710 226 787 395 1430 514 1955 28 123 53
226 54 228 2 1 13 -13 24 -33 24 -40 35 -42 77 -17 l30 19 30 -45 c25 -38 48
-54 140 -101 61 -31 158 -87 217 -124 58 -37 110 -67 115 -67 5 0 29 16 52 37
l43 36 46 -24 c26 -13 50 -25 55 -27 10 -5 9 45 -2 66 -4 9 -11 29 -15 45 -6
27 -6 27 45 27 45 0 50 2 45 18 -15 39 -93 166 -143 233 l-54 72 27 22 c23 18
26 27 21 54 l-7 33 59 -7 58 -7 7 64 c4 34 15 100 24 146 l17 82 52 -35 c44
-30 73 -43 73 -32 0 1 7 40 15 87 20 113 39 175 78 258 l34 69 134 -124 c165
-154 312 -273 448 -364 101 -68 191 -119 210 -119 5 0 14 23 20 50 6 28 20 68
31 90 19 37 21 39 87 45 38 4 85 14 106 23 31 12 38 19 33 36 -2 11 -7 37 -11
56 l-6 35 82 -4 82 -3 -7 33 c-10 54 -94 255 -162 392 -35 70 -62 127 -59 127
3 0 25 -35 50 -78z m-2490 -329 c34 -98 78 -219 96 -268 32 -89 32 -92 19
-153 -7 -34 -16 -62 -19 -62 -4 0 -22 25 -40 55 -32 52 -33 57 -22 98 14 51
10 64 -83 291 l-65 158 22 33 c12 19 23 32 25 30 2 -2 32 -84 67 -182z"/>
</g>
</svg>
