<svg xmlns="http://www.w3.org/2000/svg" width="32" height="32" viewBox="0 0 32 32" class="svg-icon">
   <path d="M 0.16796875,0 0,0.16796875 V 2.2773438 L 5.2441406,7.3769531 V 7.2617188 H 12 V 0 H 9 V 6.9101562 L 2.2851562,0 Z M 12,7.2617188 v 1.4160156 h 8 V 7.2617188 Z m 8,0 h 6.755859 V 7.3769531 L 32,2.2773438 V 0.16796875 L 31.832031,0 H 29.714844 L 23,6.9101562 V 0 h -3 z m 6.755859,0.1152343 -1.33789,1.3007813 h 1.33789 z m -1.33789,1.3007813 H 20 V 10.09375 h 6.755859 L 24.34375,12 H 32 V 9 H 25.085938 Z M 24.34375,12 H 20 V 10.09375 H 12 V 12 H 7.65625 l 4.757812,3.757812 h 7.171876 z M 7.65625,12 5.2441406,10.09375 H 12 V 8.6777344 H 6.5820312 L 6.9140625,9 H 0 v 3 z M 6.5820312,8.6777344 5.2441406,7.3769531 v 1.3007813 z m 5.8320308,8.4960936 1.792969,11.330078 h 3.585938 L 19.585938,17.173828 Z M 0,20 v 3 H 6.9140625 L 0,29.722656 v 2.109375 L 0.16796875,32 H 2.2851562 L 9,25.089844 V 32 h 3 V 20 Z m 20,0 v 12 h 3 V 25.089844 L 29.714844,32 h 2.117187 L 32,31.832031 V 29.722656 L 25.085938,23 H 32 v -3 z" />
</svg>
