<?xml version="1.0" encoding="UTF-8"?>
<svg width="20px" height="20px" viewBox="0 0 20 20" version="1.1" xmlns="http://www.w3.org/2000/svg" xmlns:xlink="http://www.w3.org/1999/xlink">
    <g stroke="none" stroke-width="1" fill="none" fill-rule="evenodd">
        <g transform="translate(-40.000000, -1159.000000)" fill="#000000" fill-rule="nonzero">
            <g transform="translate(40.000000, 1071.000000)">
                <path d="M18,88 C19.1045695,88 20,88.8954305 20,90 L20,106 C20,107.104569 19.1045695,108 18,108 L2,108 C0.8954305,108 0,107.104569 0,106 L0,90 C0,88.8954305 0.8954305,88 2,88 L18,88 Z M18,89 L2,89 C1.44771525,89 1,89.4477153 1,90 L1,106 C1,106.552285 1.44771525,107 2,107 L18,107 C18.5522847,107 19,106.552285 19,106 L19,90 C19,89.4477153 18.5522847,89 18,89 Z M6,102 L6,105 L4,103.5 L6,102 Z M14,102 L16,103.5 L14,105 L14,102 Z M16.5,98 C16.7761424,98 17,98.2238576 17,98.5 C17,98.7761424 16.7761424,99 16.5,99 L8.5,99 C8.22385763,99 8,98.7761424 8,98.5 C8,98.2238576 8.22385763,98 8.5,98 L16.5,98 Z M5.5,98 C5.77614237,98 6,98.2238576 6,98.5 C6,98.7761424 5.77614237,99 5.5,99 L3.5,99 C3.22385763,99 3,98.7761424 3,98.5 C3,98.2238576 3.22385763,98 3.5,98 L5.5,98 Z M13.5,95 C13.7761424,95 14,95.2238576 14,95.5 C14,95.7761424 13.7761424,96 13.5,96 L8.5,96 C8.22385763,96 8,95.7761424 8,95.5 C8,95.2238576 8.22385763,95 8.5,95 L13.5,95 Z M5.5,95 C5.77614237,95 6,95.2238576 6,95.5 C6,95.7761424 5.77614237,96 5.5,96 L4.5,96 C4.22385763,96 4,95.7761424 4,95.5 C4,95.2238576 4.22385763,95 4.5,95 L5.5,95 Z M16.5,92 C16.7761424,92 17,92.2238576 17,92.5 C17,92.7761424 16.7761424,93 16.5,93 L8.5,93 C8.22385763,93 8,92.7761424 8,92.5 C8,92.2238576 8.22385763,92 8.5,92 L16.5,92 Z M5.5,92 C5.77614237,92 6,92.2238576 6,92.5 C6,92.7761424 5.77614237,93 5.5,93 L3.5,93 C3.22385763,93 3,92.7761424 3,92.5 C3,92.2238576 3.22385763,92 3.5,92 L5.5,92 Z"></path>
            </g>
        </g>
    </g>
</svg>