<?xml version="1.0" encoding="utf-8"?><svg version="1.1" id="Livello_1" xmlns="http://www.w3.org/2000/svg" xmlns:xlink="http://www.w3.org/1999/xlink" x="0px" y="0px" viewBox="0 0 512 512" style="enable-background:new 0 0 512 512" xml:space="preserve"><style type="text/css">.st0{fill:#185C37;} .st1{fill:#21A366;} .st2{fill:#107C41;} .st3{opacity:0.1;enable-background:new ;} .st4{opacity:0.2;enable-background:new ;} .st5{fill:url(#SVGID_1_);} .st6{fill:#FFFFFF;} .st7{fill:#33C481;}</style><path class="st0" d="M321.49,244.09l-202.42-35.72v263.94c0,12.05,9.77,21.83,21.83,21.83l0,0h349.28	c12.05,0,21.83-9.77,21.83-21.83l0,0v-97.24L321.49,244.09z"/><path class="st1" d="M321.49,17.86H140.9c-12.05,0-21.83,9.77-21.83,21.83l0,0v97.24L321.49,256l107.16,35.72L512,256V136.93	L321.49,17.86z"/><path class="st2" d="M119.07,136.93h202.42V256H119.07V136.93z"/><path class="st3" d="M263.94,113.12H119.07v297.67h144.87c12.04-0.04,21.79-9.79,21.83-21.83V134.94	C285.73,122.9,275.98,113.16,263.94,113.12z"/><path class="st4" d="M252.04,125.02H119.07V422.7h132.97c12.04-0.04,21.79-9.79,21.83-21.83V146.85	C273.82,134.81,264.07,125.06,252.04,125.02z"/><path class="st4" d="M252.04,125.02H119.07v273.86h132.97c12.04-0.04,21.79-9.79,21.83-21.83V146.85	C273.82,134.81,264.07,125.06,252.04,125.02z"/><path class="st4" d="M240.13,125.02H119.07v273.86h121.06c12.04-0.04,21.79-9.79,21.83-21.83V146.85	C261.91,134.81,252.17,125.06,240.13,125.02z"/><linearGradient id="SVGID_1_" gradientUnits="userSpaceOnUse" x1="45.5065" y1="-1464.0308" x2="216.4467" y2="-1167.9695" gradientTransform="matrix(1 0 0 1 0 1572)"><stop offset="0" style="stop-color:#18884F"/><stop offset="0.5" style="stop-color:#117E43"/><stop offset="1" style="stop-color:#0B6631"/></linearGradient><path class="st5" d="M21.83,125.02h218.3c12.05,0,21.83,9.77,21.83,21.83v218.3c0,12.05-9.77,21.83-21.83,21.83H21.83	C9.77,386.98,0,377.21,0,365.15v-218.3C0,134.79,9.77,125.02,21.83,125.02z"/><path class="st6" d="M67.6,326.94l45.91-71.14l-42.07-70.75h33.84l22.96,45.25c2.12,4.3,3.57,7.49,4.36,9.6h0.3	c1.51-3.43,3.1-6.76,4.76-9.99l24.54-44.83h31.07l-43.14,70.33l44.23,71.54H161.3l-26.52-49.66c-1.25-2.11-2.31-4.33-3.17-6.63	h-0.39c-0.78,2.25-1.81,4.41-3.07,6.43l-27.3,49.87L67.6,326.94L67.6,326.94z"/><path class="st7" d="M490.17,17.86H321.49v119.07H512V39.69C512,27.63,502.23,17.86,490.17,17.86L490.17,17.86z"/><path class="st2" d="M321.49,256H512v119.07H321.49V256z"/></svg>