<svg width="228" height="160" viewBox="0 0 228 160" fill="none" xmlns="http://www.w3.org/2000/svg">
<rect x="8" y="8" width="106" height="144" fill="#363636"/>
<path d="M104.5 92V83.5H111H111.5V83V77V76.5H111H104.5V68V66.9129L103.675 67.6204L89.6746 79.6204L89.2317 80L89.6746 80.3796L103.675 92.3796L104.5 93.0871V92ZM123.5 76.5L117 76.5H116.5V77L116.5 83V83.5H117L123.5 83.5V92V93.0871L124.325 92.3796L138.325 80.3796L138.768 80L138.325 79.6204L124.325 67.6204L123.5 66.9129V68L123.5 76.5Z" fill="#6A6A6A" stroke="#181818"/>
</svg>
