<svg width="228" height="160" viewBox="0 0 228 160" fill="none" xmlns="http://www.w3.org/2000/svg">
<rect x="114" y="8" width="106" height="144" fill="#363636"/>
<mask id="path-2-outside-1_411_1294" maskUnits="userSpaceOnUse" x="88" y="65" width="52" height="30" fill="black">
<rect fill="white" x="88" y="65" width="52" height="30"/>
<path fill-rule="evenodd" clip-rule="evenodd" d="M104 77V68L90 80L104 92V83H111V77H104ZM124 83V92L138 80L124 68L124 77L117 77L117 83L124 83Z"/>
</mask>
<path fill-rule="evenodd" clip-rule="evenodd" d="M104 77V68L90 80L104 92V83H111V77H104ZM124 83V92L138 80L124 68L124 77L117 77L117 83L124 83Z" fill="#6A6A6A"/>
<path d="M104 68H105V65.8258L103.349 67.2407L104 68ZM104 77H103V78H104V77ZM90 80L89.3492 79.2407L88.4634 80L89.3492 80.7593L90 80ZM104 92L103.349 92.7593L105 94.1742V92H104ZM104 83V82H103V83H104ZM111 83V84H112V83H111ZM111 77H112V76H111V77ZM124 92H123V94.1742L124.651 92.7593L124 92ZM124 83H125V82H124V83ZM138 80L138.651 80.7593L139.537 80L138.651 79.2407L138 80ZM124 68L124.651 67.2407L123 65.8258V68L124 68ZM124 77V78H125V77H124ZM117 77V76H116V77H117ZM117 83H116V84H117V83ZM103 68V77H105V68H103ZM90.6508 80.7593L104.651 68.7593L103.349 67.2407L89.3492 79.2407L90.6508 80.7593ZM104.651 91.2407L90.6508 79.2407L89.3492 80.7593L103.349 92.7593L104.651 91.2407ZM103 83V92H105V83H103ZM111 82H104V84H111V82ZM110 77V83H112V77H110ZM104 78H111V76H104V78ZM125 92V83H123V92H125ZM137.349 79.2407L123.349 91.2407L124.651 92.7593L138.651 80.7593L137.349 79.2407ZM123.349 68.7593L137.349 80.7593L138.651 79.2407L124.651 67.2407L123.349 68.7593ZM125 77L125 68L123 68L123 77H125ZM117 78L124 78V76L117 76V78ZM118 83L118 77H116L116 83H118ZM124 82L117 82V84L124 84V82Z" fill="#181818" mask="url(#path-2-outside-1_411_1294)"/>
</svg>
