<svg width="108" height="108" viewBox="0 0 108 108" fill="none" xmlns="http://www.w3.org/2000/svg">
<rect x="104" y="54" width="50" height="100" transform="rotate(90 104 54)" fill="#363636"/>
<mask id="path-2-outside-1_411_1292" maskUnits="userSpaceOnUse" x="42" y="34" width="24" height="40" fill="black">
<rect fill="white" x="42" y="34" width="24" height="40"/>
<path fill-rule="evenodd" clip-rule="evenodd" d="M51.75 61.5L45 61.5L54 72L63 61.5L56.25 61.5L56.25 56.25L51.75 56.25L51.75 61.5ZM56.25 46.5L63 46.5L54 36L45 46.5L51.75 46.5L51.75 51.75L56.25 51.75L56.25 46.5Z"/>
</mask>
<path fill-rule="evenodd" clip-rule="evenodd" d="M51.75 61.5L45 61.5L54 72L63 61.5L56.25 61.5L56.25 56.25L51.75 56.25L51.75 61.5ZM56.25 46.5L63 46.5L54 36L45 46.5L51.75 46.5L51.75 51.75L56.25 51.75L56.25 46.5Z" fill="#6A6A6A"/>
<path d="M45 61.5L45 60.5L42.8258 60.5L44.2407 62.1508L45 61.5ZM51.75 61.5L51.75 62.5L52.75 62.5L52.75 61.5L51.75 61.5ZM54 72L53.2407 72.6508L54 73.5366L54.7593 72.6508L54 72ZM63 61.5L63.7593 62.1508L65.1742 60.5L63 60.5L63 61.5ZM56.25 61.5L55.25 61.5L55.25 62.5L56.25 62.5L56.25 61.5ZM56.25 56.25L57.25 56.25L57.25 55.25L56.25 55.25L56.25 56.25ZM51.75 56.25L51.75 55.25L50.75 55.25L50.75 56.25L51.75 56.25ZM63 46.5L63 47.5L65.1742 47.5L63.7593 45.8492L63 46.5ZM56.25 46.5L56.25 45.5L55.25 45.5L55.25 46.5L56.25 46.5ZM54 36L54.7593 35.3492L54 34.4634L53.2407 35.3492L54 36ZM45 46.5L44.2407 45.8492L42.8258 47.5L45 47.5L45 46.5ZM51.75 46.5L52.75 46.5L52.75 45.5L51.75 45.5L51.75 46.5ZM51.75 51.75L50.75 51.75L50.75 52.75L51.75 52.75L51.75 51.75ZM56.25 51.75L56.25 52.75L57.25 52.75L57.25 51.75L56.25 51.75ZM45 62.5L51.75 62.5L51.75 60.5L45 60.5L45 62.5ZM54.7593 71.3492L45.7593 60.8492L44.2407 62.1508L53.2407 72.6508L54.7593 71.3492ZM62.2407 60.8492L53.2407 71.3492L54.7593 72.6508L63.7593 62.1508L62.2407 60.8492ZM56.25 62.5L63 62.5L63 60.5L56.25 60.5L56.25 62.5ZM55.25 56.25L55.25 61.5L57.25 61.5L57.25 56.25L55.25 56.25ZM51.75 57.25L56.25 57.25L56.25 55.25L51.75 55.25L51.75 57.25ZM52.75 61.5L52.75 56.25L50.75 56.25L50.75 61.5L52.75 61.5ZM63 45.5L56.25 45.5L56.25 47.5L63 47.5L63 45.5ZM53.2407 36.6508L62.2407 47.1508L63.7593 45.8492L54.7593 35.3492L53.2407 36.6508ZM45.7593 47.1508L54.7593 36.6508L53.2407 35.3492L44.2407 45.8492L45.7593 47.1508ZM51.75 45.5L45 45.5L45 47.5L51.75 47.5L51.75 45.5ZM52.75 51.75L52.75 46.5L50.75 46.5L50.75 51.75L52.75 51.75ZM56.25 50.75L51.75 50.75L51.75 52.75L56.25 52.75L56.25 50.75ZM55.25 46.5L55.25 51.75L57.25 51.75L57.25 46.5L55.25 46.5Z" fill="#181818" mask="url(#path-2-outside-1_411_1292)"/>
</svg>
