<svg width="16" height="16" viewBox="0 0 16 16" fill="none" xmlns="http://www.w3.org/2000/svg">
<path fill-rule="evenodd" clip-rule="evenodd" d="M6 7H16V1H0V15H6V7ZM5 10V7H1V10H5ZM1 11V14H5V11H1ZM15 6H1V2H15V6Z" fill="black"/>
<path d="M12.5 12C12.5 12.5523 12.0523 13 11.5 13C10.9477 13 10.5 12.5523 10.5 12C10.5 11.4477 10.9477 11 11.5 11C12.0523 11 12.5 11.4477 12.5 12Z" fill="black"/>
<path fill-rule="evenodd" clip-rule="evenodd" d="M7 12C7 12 9.01472 15 11.5 15C13.9853 15 16 12 16 12C16 12 13.9853 9 11.5 9C9.01472 9 7 12 7 12ZM8.26392 12C8.45693 11.7726 8.70498 11.5031 8.99547 11.2356C9.75608 10.5351 10.6426 10 11.5 10C12.3574 10 13.2439 10.5351 14.0045 11.2356C14.295 11.5031 14.5431 11.7726 14.7361 12C14.5431 12.2274 14.295 12.4969 14.0045 12.7644C13.2439 13.4649 12.3574 14 11.5 14C10.6426 14 9.75608 13.4649 8.99547 12.7644C8.70498 12.4969 8.45693 12.2274 8.26392 12Z" fill="black"/>
</svg>
