<svg width="20" height="20" viewBox="0 0 20 20" fill="none" xmlns="http://www.w3.org/2000/svg">
<g clip-path="url(#clip0_8058_7448)">
<path fill-rule="evenodd" clip-rule="evenodd" d="M10 7C11.1046 7 12 6.10457 12 5C12 3.89543 11.1046 3 10 3C8.89543 3 8 3.89543 8 5C8 6.10457 8.89543 7 10 7ZM10 6C10.5523 6 11 5.55228 11 5C11 4.44772 10.5523 4 10 4C9.44772 4 9 4.44772 9 5C9 5.55228 9.44772 6 10 6Z" fill="black"/>
<path fill-rule="evenodd" clip-rule="evenodd" d="M5 4.98829C5 6.98519 7.95533 10.6241 9.3437 12.238L9.4122 12.3175C9.6242 12.5629 9.79475 12.7557 9.90571 12.8811C9.94791 12.9289 9.9815 12.9668 10.0055 12.9942L10 13C10.065 13.0648 10.0623 13.0592 10.0055 12.9942C10.0451 12.9524 10.2975 12.6844 10.6696 12.2627L10.6816 12.249C12.0497 10.697 15 7.10453 15 4.98829C15 2.23333 12.7614 0 10 0C7.23858 0 5 2.23333 5 4.98829ZM10.0286 11.4772L10.0184 11.4888C9.60597 11.0068 9.07335 10.3657 8.52869 9.65357C7.87852 8.80348 7.22706 7.87266 6.7427 7.00333C6.23565 6.09328 6 5.40265 6 4.98829C6 2.78783 7.78865 1 10 1C12.2114 1 14 2.78783 14 4.98829C14 5.4217 13.7869 6.08572 13.3361 6.93233C12.9015 7.74842 12.3104 8.6174 11.7014 9.42538C11.0952 10.2297 10.4867 10.9534 10.0286 11.4772Z" fill="black"/>
<path d="M0 14.0001C0 11.7269 2.10692 9.74898 5.21299 8.73096C5.38404 9.02563 5.55992 9.32036 5.73866 9.61321C4.87808 9.87792 4.10432 10.2184 3.44343 10.615C1.794 11.6046 1 12.8325 1 14.0001C1 15.1677 1.794 16.3956 3.44343 17.3853C5.07295 18.363 7.38866 19.0001 10 19.0001C12.6113 19.0001 14.9271 18.363 16.5566 17.3853C18.206 16.3956 19 15.1677 19 14.0001C19 12.8325 18.206 11.6046 16.5566 10.615C15.9174 10.2314 15.1725 9.90031 14.3457 9.6395C14.5219 9.34664 14.695 9.05156 14.8632 8.75617C17.9275 9.78141 20 11.7455 20 14.0001C20 17.3138 15.5228 20.0001 10 20.0001C4.47715 20.0001 0 17.3138 0 14.0001Z" fill="black"/>
<path fill-rule="evenodd" clip-rule="evenodd" d="M6 14.5C6 15.3284 5.32843 16 4.5 16C3.67157 16 3 15.3284 3 14.5C3 13.6716 3.67157 13 4.5 13C5.32843 13 6 13.6716 6 14.5ZM5 14.5C5 14.7761 4.77614 15 4.5 15C4.22386 15 4 14.7761 4 14.5C4 14.2239 4.22386 14 4.5 14C4.77614 14 5 14.2239 5 14.5Z" fill="black"/>
<path fill-rule="evenodd" clip-rule="evenodd" d="M15.5 16C16.3284 16 17 15.3284 17 14.5C17 13.6716 16.3284 13 15.5 13C14.6716 13 14 13.6716 14 14.5C14 15.3284 14.6716 16 15.5 16ZM15.5 15C15.7761 15 16 14.7761 16 14.5C16 14.2239 15.7761 14 15.5 14C15.2239 14 15 14.2239 15 14.5C15 14.7761 15.2239 15 15.5 15Z" fill="black"/>
<path fill-rule="evenodd" clip-rule="evenodd" d="M11.5 16.5C11.5 17.3284 10.8284 18 10 18C9.17157 18 8.5 17.3284 8.5 16.5C8.5 15.6716 9.17157 15 10 15C10.8284 15 11.5 15.6716 11.5 16.5ZM10.5 16.5C10.5 16.7761 10.2761 17 10 17C9.72386 17 9.5 16.7761 9.5 16.5C9.5 16.2239 9.72386 16 10 16C10.2761 16 10.5 16.2239 10.5 16.5Z" fill="black"/>
</g>
<defs>
<clipPath id="clip0_8058_7448">
<rect width="20" height="20" fill="white"/>
</clipPath>
</defs>
</svg>