<svg width="108" height="90" viewBox="0 0 108 90" fill="none" xmlns="http://www.w3.org/2000/svg">
<rect x="9" y="9" width="14" height="14" rx="3" fill="#525252" stroke="#A8A8A8" stroke-width="2"/>
<rect x="23" y="28" width="77" height="51" fill="#525252"/>
<path fill-rule="evenodd" clip-rule="evenodd" d="M94 45H29V49H94V45ZM77.5075 53H29V57H77.5075V53Z" fill="#A8A8A8"/>
<path fill-rule="evenodd" clip-rule="evenodd" d="M37 69C37 71.2091 35.2091 73 33 73C30.7909 73 29 71.2091 29 69C29 66.7909 30.7909 65 33 65C35.2091 65 37 66.7909 37 69ZM49 69C49 71.2091 47.2091 73 45 73C42.7909 73 41 71.2091 41 69C41 66.7909 42.7909 65 45 65C47.2091 65 49 66.7909 49 69ZM57 73C59.2091 73 61 71.2091 61 69C61 66.7909 59.2091 65 57 65C54.7909 65 53 66.7909 53 69C53 71.2091 54.7909 73 57 73ZM73 69C73 71.2091 71.2091 73 69 73C66.7909 73 65 71.2091 65 69C65 66.7909 66.7909 65 69 65C71.2091 65 73 66.7909 73 69ZM81 73C83.2091 73 85 71.2091 85 69C85 66.7909 83.2091 65 81 65C78.7909 65 77 66.7909 77 69C77 71.2091 78.7909 73 81 73Z" fill="#A8A8A8"/>
<path d="M93.3727 35L95.4228 37.0501C95.5257 37.153 95.5257 37.3199 95.4228 37.4228C95.3199 37.5257 95.153 37.5257 95.0501 37.4228L93 35.3727L90.9499 37.4228C90.847 37.5257 90.6801 37.5257 90.5772 37.4228C90.4743 37.3199 90.4743 37.153 90.5772 37.0501L92.6273 35L90.5772 32.9499C90.4743 32.847 90.4743 32.6801 90.5772 32.5772C90.6801 32.4743 90.847 32.4743 90.9499 32.5772L93 34.6273L95.0501 32.5772C95.153 32.4743 95.3199 32.4743 95.4228 32.5772C95.5257 32.6801 95.5257 32.847 95.4228 32.9499L93.3727 35Z" fill="#C5C5C5" stroke="#C5C5C5"/>
</svg>
