<svg width="109" height="70" viewBox="0 0 109 70" fill="none" xmlns="http://www.w3.org/2000/svg">
<rect x="8" y="8" width="93" height="54" rx="2" fill="#282828"/>
<rect x="32" y="24" width="16" height="5" fill="#525252"/>
<rect x="32" y="32" width="16" height="5" fill="#363636"/>
<rect x="32" y="39" width="16" height="5" fill="#363636"/>
<rect x="32" y="46" width="16" height="5" fill="#363636"/>
<rect x="32" y="53" width="16" height="5" fill="#363636"/>
<rect x="12" y="24" width="16" height="5" fill="#525252"/>
<rect x="12" y="32" width="16" height="5" fill="#363636"/>
<rect x="12" y="39" width="16" height="5" fill="#363636"/>
<rect x="12" y="46" width="16" height="5" fill="#363636"/>
<rect x="12" y="53" width="16" height="5" fill="#363636"/>
<rect x="12" y="19" width="85" height="1" fill="#363636"/>
<rect x="12" y="19" width="16" height="1" fill="#6A6A6A"/>
<rect x="12" y="13" width="16" height="6" fill="#6A6A6A"/>
<rect x="30" y="13" width="16" height="6" fill="#363636"/>
<rect x="48" y="13" width="16" height="6" fill="#363636"/>
<rect x="52" y="24" width="17" height="5" fill="#525252"/>
<rect x="52" y="32" width="17" height="5" fill="#363636"/>
<rect x="52" y="39" width="17" height="5" fill="#363636"/>
<rect x="52" y="46" width="17" height="5" fill="#363636"/>
<rect x="52" y="53" width="17" height="5" fill="#363636"/>
<rect x="73" y="24" width="24" height="5" fill="#525252"/>
<rect x="73" y="32" width="24" height="5" fill="#363636"/>
<rect x="73" y="39" width="24" height="5" fill="#363636"/>
<rect x="73" y="46" width="24" height="5" fill="#363636"/>
<rect x="73" y="53" width="24" height="5" fill="#363636"/>
</svg>
