<svg height="64" viewBox="0 0 128 128" width="64" xmlns="http://www.w3.org/2000/svg" xmlns:xlink="http://www.w3.org/1999/xlink">
<linearGradient id="a" gradientUnits="userSpaceOnUse" x1="0" x2="128" y1="128" y2="0"><stop offset="0" stop-color="#333"/><stop offset="1" stop-color="#5d5d5d"/></linearGradient><path d="m42.9375 22.03125c-2.163957 0-3.90625 1.742293-3.90625 3.90625v7.9375c0 2.16396 1.742293 3.90625 3.90625 3.90625h42.125c2.16396 0 3.90625-1.74229 3.90625-3.90625v-7.9375c0-2.163957-1.74229-3.90625-3.90625-3.90625zm3.5625 4.71875c.08526-.0167.159723 0 .25 0h9.5625c.722218 0 1.3125.559032 1.3125 1.28125v3.71875c0 .72222-.590282 1.3125-1.3125 1.3125h-9.5625c-.722218 0-1.3125-.59028-1.3125-1.3125v-3.71875c0-.631941.465687-1.164374 1.0625-1.28125zm-3.5625 18c-2.163957 0-3.90625 1.742293-3.90625 3.90625v7.9375c0 2.16396 1.742293 3.90625 3.90625 3.90625h42.125c2.16396 0 3.90625-1.74229 3.90625-3.90625v-7.9375c0-2.163957-1.74229-3.90625-3.90625-3.90625zm3.5625 4.71875c.08526-.0167.159723 0 .25 0h9.5625c.722218 0 1.3125.559032 1.3125 1.28125v3.71875c0 .72222-.590282 1.3125-1.3125 1.3125h-9.5625c-.722218 0-1.3125-.59028-1.3125-1.3125v-3.71875c0-.631941.465687-1.164374 1.0625-1.28125zm-21.4375 5.09375-19.875 9.4375 19.875 9.4375v-4.9375h7.84375c1.14008 0 2.0625-.922423 2.0625-2.0625v-4.875c0-1.140077-.92242-2.0625-2.0625-2.0625h-7.84375zm77.875 0v4.9375h-7.8125c-1.14008 0-2.0625.922423-2.0625 2.0625v4.875c0 1.140077.92242 2.0625 2.0625 2.0625h7.8125v4.9375l19.875-9.4375zm-60 12.9375c-2.163957 0-3.90625 1.742293-3.90625 3.90625v7.9375c0 2.16396 1.742293 3.90625 3.90625 3.90625h42.125c2.16396 0 3.90625-1.74229 3.90625-3.90625v-7.9375c0-2.163957-1.74229-3.90625-3.90625-3.90625zm3.5625 4.71875c.08526-.0167.159723 0 .25 0h9.5625c.722218 0 1.3125.559032 1.3125 1.28125v3.71875c0 .72222-.590282 1.3125-1.3125 1.3125h-9.5625c-.722218 0-1.3125-.59028-1.3125-1.3125v-3.71875c0-.631941.465687-1.164374 1.0625-1.28125zm-3.5625 18c-2.163957 0-3.90625 1.742293-3.90625 3.90625v7.9375c0 2.16396 1.742293 3.90625 3.90625 3.90625h42.125c2.16396 0 3.90625-1.74229 3.90625-3.90625v-7.9375c0-2.163957-1.74229-3.90625-3.90625-3.90625zm3.5625 4.71875c.08526-.0167.159723 0 .25 0h9.5625c.722218 0 1.3125.559032 1.3125 1.28125v3.71875c0 .72222-.590282 1.3125-1.3125 1.3125h-9.5625c-.722218 0-1.3125-.59028-1.3125-1.3125v-3.71875c0-.631941.465687-1.164374 1.0625-1.28125z" fill="url(#a)"/>
</svg>
