<svg width="400" height="400" viewBox="0 0 400 400" fill="none" xmlns="http://www.w3.org/2000/svg">
<rect width="400" height="40" fill="black"/>
<path fill-rule="evenodd" clip-rule="evenodd" d="M80 55H20V64H80V55ZM180 55H120V64H180V55ZM220 55H280V64H220V55ZM380 55H320V64H380V55ZM20 135H80V144H20V135ZM180 135H120V144H180V135ZM220 135H280V144H220V135ZM380 135H320V144H380V135ZM20 215H80V224H20V215ZM180 215H120V224H180V215ZM220 215H280V224H220V215ZM380 215H320V224H380V215ZM20 295H80V304H20V295ZM180 295H120V304H180V295ZM220 295H280V304H220V295ZM380 295H320V304H380V295ZM20 95H80V104H20V95ZM180 95H120V104H180V95ZM220 95H280V104H220V95ZM380 95H320V104H380V95ZM20 175H80V184H20V175ZM180 175H120V184H180V175ZM220 175H280V184H220V175ZM380 175H320V184H380V175ZM20 255H80V264H20V255ZM180 255H120V264H180V255ZM220 255H280V264H220V255ZM380 255H320V264H380V255ZM20 334H80V343H20V334ZM180 334H120V343H180V334ZM220 334H280V343H220V334ZM380 334H320V343H380V334ZM20 374H80V383H20V374ZM180 374H120V383H180V374ZM220 374H280V383H220V374ZM380 374H320V383H380V374Z" fill="black"/>
<path fill-rule="evenodd" clip-rule="evenodd" d="M0 39H1V79L99 79V39H100V79L199 79V39H200V79L299 79V39H300V79L399 79V39H400V399H399V359H300V399H399V400L0 400V399V359V358V319V318V280V279V240V239V200V199V160V159V120V119V80V79V39ZM1 359V399H99V359H1ZM99 358H1V319H99V358ZM100 359V399H199V359H100ZM199 358H100V319H199V358ZM200 359V399H299V359H200ZM299 358H200V319H299V358ZM300 358H399V319H300V358ZM1 318V280H99V318H1ZM100 318V280H199V318H100ZM100 279H199V240H100V279ZM200 318V280H299V318H200ZM200 279H299V240H200V279ZM300 318V280H399V318H300ZM300 279H399V240H300V279ZM1 279H99V240H1V279ZM1 200V239H99V200H1ZM99 199H1V160H99V199ZM100 200V239H199V200H100ZM199 199H100V160H199V199ZM200 200V239H299V200H200ZM299 199H200V160H299V199ZM300 200V239H399V200H300ZM399 199H300V160H399V199ZM1 159V120H99V159H1ZM100 159V120H199V159H100ZM100 119H199V80L100 80V119ZM200 159V120H299V159H200ZM200 119H299V80L200 80V119ZM300 159V120H399V159H300ZM300 119H399V80L300 80V119ZM1 119H99V80L1 80V119Z" fill="black"/>
</svg>
