<?xml version="1.0" standalone="no"?>
<!DOCTYPE svg PUBLIC "-//W3C//DTD SVG 20010904//EN"
 "http://www.w3.org/TR/2001/REC-SVG-20010904/DTD/svg10.dtd">
<svg version="1.0" xmlns="http://www.w3.org/2000/svg"
 width="1280.000000pt" height="1014.000000pt" viewBox="0 0 1280.000000 1014.000000"
 preserveAspectRatio="xMidYMid meet">
<metadata>
Created by potrace 1.15, written by Peter Selinger 2001-2017
</metadata>
<g transform="translate(0.000000,1014.000000) scale(0.100000,-0.100000)"
fill="#000000" stroke="none">
<path d="M9623 10125 c-126 -23 -265 -76 -323 -123 -20 -17 -23 -23 -12 -33
28 -30 14 -55 -47 -81 -55 -24 -60 -28 -80 -82 -11 -31 -21 -74 -21 -95 0 -37
1 -39 48 -51 80 -22 100 -36 108 -75 5 -31 13 -38 57 -57 l51 -22 -80 -12
c-44 -6 -89 -16 -100 -22 -31 -16 -164 -217 -164 -246 0 -3 20 2 44 10 25 9
57 14 73 12 26 -3 28 -7 35 -62 4 -33 7 -61 5 -62 -1 -2 -47 4 -102 12 -144
21 -508 20 -654 -1 -208 -30 -440 -98 -635 -188 -103 -47 -226 -114 -226 -123
0 -13 107 -68 172 -89 l78 -25 41 45 42 45 16 -32 c25 -51 69 -74 153 -81 122
-10 205 -41 263 -97 28 -26 80 -68 117 -93 l68 -44 52 13 c29 8 80 14 113 13
l60 0 -90 -19 c-49 -11 -117 -28 -150 -38 l-60 -18 67 -13 c37 -7 75 -10 84
-7 12 5 15 2 9 -11 -4 -10 -9 -32 -12 -48 l-5 -31 104 1 c94 0 106 -2 136 -24
17 -14 29 -28 25 -31 -5 -4 -62 -26 -128 -50 -172 -61 -568 -222 -692 -280
-122 -57 -225 -124 -390 -252 -143 -111 -404 -331 -456 -386 l-39 -39 16 -54
c9 -29 16 -68 16 -86 0 -29 3 -33 28 -33 36 0 115 22 180 50 45 19 56 30 83
80 17 32 45 72 63 89 l32 31 55 -30 c30 -16 62 -30 72 -30 26 0 21 -15 -10
-29 -44 -20 -193 -121 -193 -131 0 -5 16 -12 35 -16 19 -3 35 -9 35 -13 -1 -6
-28 -26 -158 -118 l-75 -52 -91 86 c-50 47 -122 111 -161 143 -66 54 -212 154
-236 162 -13 4 9 54 48 106 l25 33 37 -61 c39 -65 126 -170 141 -170 10 0 -11
95 -41 190 -35 108 -134 300 -203 391 -120 158 -327 326 -545 442 l-102 54
148 7 c147 7 148 8 201 42 29 19 77 47 107 60 l55 26 32 -27 c31 -26 105 -67
144 -79 l22 -7 -24 60 c-13 33 -27 81 -31 108 l-6 48 24 -17 c39 -28 185 -110
321 -182 l127 -66 -20 47 c-11 26 -24 52 -29 58 -11 14 -100 191 -100 200 0 3
19 -9 43 -28 51 -42 204 -138 312 -197 44 -23 95 -52 113 -62 17 -11 32 -17
32 -14 0 2 -59 55 -131 115 -71 61 -127 111 -124 111 10 0 86 -45 296 -176
107 -67 225 -138 260 -158 l65 -36 104 10 c96 8 281 33 338 46 33 7 22 18
-112 118 -303 225 -558 340 -1006 453 -330 83 -585 113 -793 94 -604 -56
-1240 -217 -1775 -450 -51 -22 -92 -38 -92 -36 0 2 39 27 88 56 48 29 89 54
91 55 10 9 -34 96 -65 128 l-35 36 33 0 c37 0 153 40 273 94 l80 35 8 48 c14
90 14 91 102 149 51 34 82 61 78 68 -4 6 -31 43 -61 83 -29 40 -51 77 -47 83
4 6 48 10 108 10 l102 1 -40 35 c-95 82 -273 139 -413 132 l-84 -5 4 54 c3 31
12 61 22 72 18 19 17 20 -20 36 -65 27 -167 38 -252 26 -149 -20 -176 -29
-197 -64 -10 -18 -68 -83 -128 -145 -59 -63 -116 -129 -124 -148 l-17 -34 -95
6 c-86 6 -102 4 -149 -16 -41 -18 -51 -27 -47 -40 15 -46 25 -144 25 -236 l0
-102 -67 -7 c-79 -8 -123 -28 -123 -54 0 -10 9 -63 20 -116 11 -54 18 -100 16
-102 -7 -8 -127 96 -345 298 -122 114 -248 225 -280 248 l-58 40 -34 -29 c-48
-41 -55 -37 -25 16 14 26 26 48 26 49 0 10 -239 95 -244 86 -2 -3 -9 -30 -16
-59 -7 -29 -15 -51 -18 -48 -2 3 -10 47 -16 98 l-12 93 -64 32 c-94 47 -257
97 -480 147 -107 24 -202 47 -211 51 -13 5 -19 -5 -30 -51 l-14 -56 -60 -19
c-101 -32 -149 -61 -162 -100 -7 -19 -12 -51 -12 -71 l-1 -38 88 6 c56 4 96 3
108 -4 14 -8 26 -40 44 -113 l25 -103 110 3 111 2 22 -71 c13 -39 34 -96 48
-127 l25 -56 47 7 c26 3 81 23 122 43 41 20 80 38 85 41 6 3 -25 -31 -67 -74
l-77 -79 37 -23 37 -23 -90 6 c-254 17 -704 -49 -995 -144 -80 -27 -260 -105
-260 -113 0 -2 33 -4 73 -5 39 -1 101 -7 136 -14 l65 -12 -37 -29 c-20 -16
-52 -51 -71 -77 -32 -44 -41 -49 -118 -71 -198 -56 -668 -221 -668 -234 0 -8
183 -182 200 -190 13 -6 47 1 111 23 l93 31 -49 -51 c-66 -67 -49 -62 173 53
94 49 172 86 172 82 0 -3 -22 -32 -48 -63 -85 -99 -85 -99 81 6 37 24 69 43
72 43 3 0 -20 -49 -50 -110 -30 -60 -50 -110 -44 -110 6 0 56 11 111 25 55 14
102 24 104 22 2 -2 -26 -39 -64 -82 l-67 -79 90 48 c50 27 135 77 190 112 96
60 100 61 108 41 8 -20 15 -16 83 58 86 92 87 92 127 -20 14 -38 28 -77 31
-85 5 -13 -30 -25 -201 -67 -338 -85 -593 -177 -844 -304 -143 -73 -248 -142
-404 -267 -134 -108 -468 -434 -510 -499 l-27 -42 7 -146 c4 -80 9 -144 12
-142 2 2 15 50 28 106 22 91 51 169 59 159 2 -1 -3 -48 -10 -102 -8 -55 -12
-101 -10 -104 7 -6 49 83 87 183 l34 90 3 -85 c1 -47 5 -96 8 -110 l7 -25 8
30 c5 17 21 90 35 162 15 73 30 130 34 128 15 -9 50 -222 50 -302 0 -29 3 -53
8 -53 4 0 27 70 50 155 24 85 52 175 61 201 l18 46 1 -103 c1 -57 5 -120 10
-139 l9 -35 7 30 c17 68 38 121 56 145 l20 25 0 -27 c0 -15 12 -53 26 -85 30
-67 37 -61 48 47 10 90 37 242 43 236 3 -2 11 -53 19 -112 8 -59 15 -109 17
-110 1 -2 18 23 37 54 30 52 127 182 135 182 2 0 0 -13 -5 -28 -14 -50 -22
-150 -15 -183 7 -29 12 -21 74 120 37 83 70 154 73 157 4 3 2 -12 -3 -33 -5
-21 -8 -72 -8 -113 l0 -75 49 115 c28 63 59 133 69 155 l19 40 0 -100 c0 -55
4 -110 9 -123 8 -21 13 -18 70 55 34 43 86 102 116 131 l54 53 23 -88 c13 -48
27 -104 33 -123 l9 -35 20 49 c27 70 76 140 158 226 50 53 69 68 64 51 -9 -33
-8 -142 1 -170 6 -20 13 -11 50 65 23 49 67 123 96 164 l54 75 5 -143 5 -143
75 151 c41 84 78 153 81 156 3 2 -2 -29 -11 -69 -21 -89 -30 -168 -19 -161 5
3 9 11 9 17 0 7 23 49 51 92 28 44 61 102 74 128 l23 48 6 -48 c4 -26 19 -97
33 -157 19 -80 29 -104 34 -90 5 10 22 55 39 99 32 82 122 246 126 229 1 -5 6
-40 10 -79 4 -38 9 -63 12 -55 10 32 156 200 173 200 4 0 12 -12 17 -27 7 -22
5 -34 -10 -55 -20 -29 -17 -32 17 -18 15 6 27 1 46 -17 l26 -24 -39 -77 c-38
-73 -50 -85 -226 -236 -391 -334 -779 -763 -1036 -1146 -65 -96 -175 -318
-240 -484 -67 -170 -126 -408 -126 -511 0 -42 31 -160 53 -200 10 -19 11 -19
18 5 4 14 7 40 8 58 1 17 4 32 9 32 4 0 21 -17 37 -38 l30 -37 5 190 5 190 40
-72 c25 -48 42 -68 47 -60 8 12 30 85 42 141 l7 28 67 -65 c36 -37 67 -65 69
-63 2 1 -2 28 -7 59 -6 31 -10 86 -8 123 l3 66 73 -67 c39 -37 72 -64 72 -61
0 4 -20 57 -45 119 l-44 112 71 -75 c63 -68 70 -72 65 -45 -3 17 -9 59 -12 95
l-6 65 31 -35 c17 -19 50 -63 73 -97 22 -34 43 -61 45 -59 4 4 -12 113 -24
166 -4 18 1 14 16 -13 12 -22 24 -37 26 -34 3 2 -11 60 -30 127 l-34 123 41
-40 c48 -45 133 -113 141 -113 3 0 -3 15 -14 33 -23 38 -73 168 -67 174 6 5
71 -76 99 -123 l23 -39 6 30 c4 17 7 80 8 140 l2 110 27 -30 c15 -17 42 -48
60 -69 18 -21 35 -36 38 -33 3 3 -6 40 -21 82 -14 43 -24 79 -23 80 2 2 27
-28 55 -65 l52 -68 -49 -88 c-52 -93 -92 -189 -116 -277 -13 -47 -12 -53 2
-62 61 -38 64 -43 64 -116 0 -39 -4 -100 -10 -137 -16 -110 -28 -265 -23 -300
l6 -34 35 62 c24 44 37 59 42 49 5 -8 24 -60 44 -116 19 -57 42 -115 49 -130
l14 -26 12 36 c7 19 26 55 43 78 l31 42 13 -24 c7 -13 20 -45 29 -71 9 -25 23
-52 31 -58 12 -11 14 -7 14 24 0 53 30 180 41 169 14 -14 68 -151 81 -209 10
-44 18 -58 37 -66 34 -12 106 -6 107 10 1 6 2 35 3 63 l1 51 30 -6 c17 -3 43
-9 58 -12 27 -5 30 -3 51 48 27 66 59 103 106 118 19 6 35 16 35 20 0 5 -16
39 -36 75 -20 36 -33 65 -30 65 3 0 29 -16 57 -37 37 -26 53 -33 58 -24 6 8
12 2 21 -18 l12 -30 40 25 c47 30 47 30 78 -61 11 -33 26 -70 33 -83 12 -21
14 -18 25 37 7 33 16 62 20 65 4 2 43 -65 87 -150 75 -145 95 -174 95 -140 0
22 51 156 59 156 4 0 13 -16 20 -35 7 -20 34 -63 61 -96 27 -33 55 -70 63 -82
13 -20 15 -9 13 108 0 72 3 143 7 159 l8 30 30 -54 c32 -59 59 -91 101 -121
l27 -19 -8 27 c-5 16 -31 97 -59 181 -27 83 -46 152 -42 152 5 0 11 -4 14 -9
18 -28 281 -179 293 -167 2 2 -1 15 -8 28 -19 34 -118 292 -114 296 2 2 32 -6
67 -17 35 -12 103 -29 151 -40 80 -17 87 -18 83 -2 -12 38 -66 294 -63 297 1
2 23 -10 49 -27 l45 -30 -5 -158 -5 -158 54 -6 c30 -4 69 -7 87 -7 l34 0 -22
-32 c-22 -34 -73 -138 -84 -173 -5 -19 -1 -20 71 -20 l77 0 13 -44 c7 -24 16
-91 19 -148 8 -116 9 -117 100 -142 38 -10 43 -16 78 -90 21 -44 41 -93 45
-108 9 -35 35 -39 84 -14 l39 20 24 -27 c13 -15 37 -53 52 -84 l28 -57 38 31
c20 17 51 55 68 86 21 36 46 64 77 83 25 16 48 29 52 29 4 0 19 4 33 9 l24 10
-14 63 c-8 34 -26 82 -39 105 l-23 43 58 31 58 31 7 66 c7 62 11 70 61 127 30
33 54 65 54 72 0 72 -109 651 -136 718 -4 10 68 -58 162 -151 249 -251 390
-367 974 -799 311 -230 442 -332 880 -685 91 -73 325 -259 520 -414 929 -735
1636 -1353 2023 -1771 447 -481 740 -913 920 -1356 l15 -37 109 -8 c112 -9
631 -9 640 -1 3 3 -10 20 -29 37 -21 20 -26 30 -14 26 16 -6 18 -2 12 36 -22
155 -40 429 -61 923 -25 595 -45 840 -90 1110 -33 193 -67 334 -183 740 -190
664 -351 1241 -466 1665 -143 529 -148 551 -142 558 3 3 17 0 31 -6 46 -21 64
-13 141 63 69 68 80 75 106 70 16 -4 46 -4 68 0 34 6 43 13 68 58 16 29 39 63
50 77 l21 25 23 -27 c20 -22 57 -48 71 -48 2 0 20 24 39 53 19 28 57 77 85
107 l50 55 41 250 c23 138 45 288 48 335 13 172 -46 721 -102 955 -5 19 0 20
137 19 l142 0 72 -151 72 -150 114 -6 c63 -3 145 -14 184 -24 69 -19 69 -19
87 -68 10 -27 26 -57 37 -68 17 -18 24 -18 89 -7 l71 13 47 -38 c59 -48 165
-172 217 -252 l41 -63 31 45 c18 24 45 71 61 105 20 42 33 59 44 56 8 -3 32
-8 52 -12 l38 -6 -25 68 c-14 38 -63 146 -110 239 -129 259 -269 471 -413 625
-38 42 -102 124 -143 184 -119 178 -396 450 -594 583 -86 58 -236 130 -417
203 -87 34 -158 65 -158 68 0 3 12 18 27 34 l26 27 -28 40 -27 41 29 33 c71
81 209 342 232 439 6 26 11 65 11 87 0 93 -74 211 -131 211 -15 0 -40 5 -56
11 -36 13 -53 -8 -53 -68 0 -45 -17 -63 -59 -63 -11 0 -34 -17 -52 -40 l-33
-40 -17 67 c-42 163 -132 306 -293 468 -150 150 -241 222 -404 316 -75 44
-141 84 -146 89 -10 10 -103 2 -129 -12 -15 -8 -17 -6 -11 18 4 17 2 29 -7 35
-20 12 -111 10 -196 -6z m-6819 -1561 c8 -21 -1 -34 -19 -29 -51 16 -51 15
-25 30 33 18 37 18 44 -1z m2237 -622 c9 -26 20 -56 24 -66 7 -16 5 -18 -9
-13 -10 4 -44 7 -77 7 l-59 0 40 41 c21 22 42 49 45 60 10 30 19 23 36 -29z
m-1881 -52 c-20 -13 -33 -13 -25 0 3 6 14 10 23 10 15 0 15 -2 2 -10z m2494
-118 c-1 -2 -18 0 -37 3 l-34 7 -1 60 -1 61 38 -64 c21 -35 37 -65 35 -67z
m-2607 78 c9 -14 10 -21 1 -26 -11 -7 -132 -34 -134 -31 -1 1 -4 14 -8 29 -6
25 -3 27 36 36 68 16 92 14 105 -8z m-173 -32 c7 -30 -1 -36 -54 -40 -42 -3
-45 -1 -45 22 0 19 6 26 30 31 53 11 63 10 69 -13z m3139 -73 c8 -39 13 -72
12 -73 -5 -6 -75 19 -75 26 0 9 44 121 47 119 1 -2 8 -34 16 -72z m4170 63
c-30 -41 -88 -114 -96 -123 -6 -5 8 23 29 62 27 51 45 73 58 73 13 0 16 -4 9
-12z m-7429 -14 c10 -27 7 -34 -19 -34 -20 0 -25 5 -25 25 0 29 34 36 44 9z
m-87 -19 c7 -21 4 -24 -50 -34 -47 -8 -57 -2 -39 25 17 26 80 32 89 9z m-172
-36 c9 -13 6 -15 -32 -24 -26 -5 -33 -3 -33 8 0 22 54 35 65 16z m-105 -28 c0
-8 -131 -34 -138 -27 -3 4 103 33 126 35 6 1 12 -3 12 -8z m2750 -36 c0 -27
-2 -28 -49 -19 -40 8 -39 18 2 32 46 15 47 14 47 -13z m-3090 -21 c0 -8 -9
-14 -20 -14 -18 0 -19 3 -10 20 12 22 30 18 30 -6z m4196 -61 c-11 -11 -17 4
-9 23 7 18 8 18 11 1 2 -10 1 -21 -2 -24z m-1465 -59 c190 -85 527 -253 699
-349 173 -97 430 -248 427 -252 -2 -1 -79 35 -172 81 -94 45 -267 127 -385
181 -118 55 -249 121 -290 147 -41 27 -150 86 -242 131 -120 59 -167 87 -168
100 0 9 1 17 3 17 2 0 59 -25 128 -56z m1855 -122 c-3 -2 -65 30 -84 44 -2 1
4 28 14 58 l18 57 27 -78 c15 -43 26 -79 25 -81z m-206 118 c0 -5 -5 -10 -11
-10 -5 0 -7 5 -4 10 3 6 8 10 11 10 2 0 4 -4 4 -10z m1880 -8 c0 -9 -90 -55
-96 -49 -6 6 68 56 84 56 6 1 12 -3 12 -7z m-1526 -169 c9 -27 -1 -29 -32 -5
-22 17 -22 20 -10 71 l12 54 11 -49 c6 -27 15 -59 19 -71z m4469 -33 c26 -13
47 -27 47 -30 0 -3 -11 -42 -23 -85 l-24 -79 -22 85 c-12 46 -26 97 -31 112
-5 16 -6 27 -2 25 4 -2 28 -14 55 -28z m-483 -22 c0 -5 -4 -8 -10 -8 -5 0 -10
10 -10 23 0 18 2 19 10 7 5 -8 10 -18 10 -22z m-5932 -184 c-2 -15 -8 -11 -26
19 -29 50 -28 57 4 26 15 -15 24 -35 22 -45z m-1249 -124 c0 -9 -6 -4 -14 10
-8 14 -14 32 -14 40 0 9 6 4 14 -10 8 -14 14 -32 14 -40z m1061 -73 c0 -12 -5
-29 -10 -37 -7 -11 -10 -3 -10 28 0 26 4 41 10 37 6 -3 10 -16 10 -28z m3370
-143 c-6 -14 -10 -38 -10 -53 0 -22 -20 -50 -82 -117 -45 -48 -77 -89 -72 -91
5 -1 40 -6 78 -10 l68 -8 -55 -45 c-30 -25 -95 -82 -145 -128 l-90 -82 -21 72
c-12 40 -29 91 -38 113 -8 22 -18 47 -21 55 -3 8 13 -2 36 -22 23 -21 44 -38
47 -38 3 0 -6 18 -21 39 -14 22 -23 44 -20 49 3 5 51 27 106 47 l100 38 34 61
c30 54 101 146 112 146 2 0 -1 -12 -6 -26z m-2975 -292 c-1 -2 -47 168 -62
233 -3 14 4 25 24 37 l28 17 6 -142 c4 -78 5 -143 4 -145z m4205 211 c0 -5 -5
-15 -10 -23 -8 -12 -10 -11 -10 8 0 12 5 22 10 22 6 0 10 -3 10 -7z m-4492
-63 c7 0 -5 -120 -14 -145 -6 -14 -14 1 -36 65 -37 111 -37 114 8 95 20 -8 39
-15 42 -15z m526 -90 c2 -68 9 -131 18 -154 l14 -39 23 64 c47 127 36 123 92
38 48 -74 49 -77 69 -214 11 -77 23 -196 26 -265 7 -143 37 -252 129 -470 29
-69 61 -160 70 -202 18 -85 18 -85 98 -79 15 1 52 -5 82 -14 l55 -16 0 -52 c0
-49 9 -114 26 -197 l7 -35 -51 44 c-175 146 -398 384 -609 648 -106 132 -355
470 -426 579 l-28 41 19 43 18 43 39 -68 c38 -64 141 -182 151 -172 6 6 -20
192 -40 297 l-15 75 32 24 c50 38 165 160 172 182 15 45 25 7 29 -101z m1301
49 c34 -33 74 -81 87 -107 20 -39 31 -48 68 -60 25 -7 66 -11 92 -9 l47 4 33
-94 c22 -63 37 -93 48 -93 23 0 113 44 135 66 18 19 18 19 11 -6 -22 -72 -17
-223 9 -291 3 -9 -108 97 -247 235 -139 139 -290 282 -336 319 l-83 66 28 15
c15 8 32 15 36 16 5 0 37 -27 72 -61z m1719 -381 c-5 -7 -22 -33 -40 -58 -91
-129 -215 -379 -283 -573 -17 -49 -31 -91 -31 -94 0 -3 36 -2 80 2 l80 7 0
-44 c0 -24 -5 -49 -11 -55 -19 -19 49 -46 131 -52 l74 -6 23 -40 c12 -22 26
-61 29 -88 4 -26 11 -50 15 -53 11 -6 148 75 256 152 143 102 316 248 430 361
62 62 113 106 113 97 0 -8 13 -38 29 -67 37 -66 66 -161 82 -268 7 -46 14 -86
15 -87 1 -2 29 14 62 37 l60 40 16 -72 c9 -39 18 -92 21 -117 3 -25 8 -59 11
-76 l4 -30 59 7 c32 3 65 10 72 15 8 4 4 -5 -9 -20 -29 -38 -28 -50 8 -78 l31
-24 -32 -40 c-41 -51 -131 -187 -157 -240 l-21 -41 48 5 c27 2 51 0 54 -5 4
-6 -3 -33 -13 -62 -29 -75 -27 -87 10 -61 16 11 43 25 59 31 28 10 33 8 70
-31 26 -28 44 -39 53 -34 7 4 56 36 108 70 102 66 220 130 287 157 34 13 47
26 68 68 24 47 28 50 43 36 9 -9 29 -20 44 -26 27 -10 29 -8 52 37 23 44 25
45 30 22 3 -14 24 -108 47 -210 122 -548 322 -1304 552 -2090 53 -179 100
-350 106 -380 60 -306 96 -977 72 -1340 -11 -166 -35 -350 -50 -377 -7 -14
-44 29 -352 407 -566 696 -1179 1304 -1904 1891 -355 287 -1067 819 -2068
1544 -251 182 -456 332 -456 335 -1 7 127 90 139 90 5 0 10 -15 10 -32 0 -57
42 -188 61 -188 9 0 35 112 50 217 13 87 16 351 6 428 -7 47 -5 44 28 -40 l35
-90 -5 75 c-10 131 -60 411 -91 512 -4 14 6 13 71 -9 42 -14 78 -24 80 -21 12
11 35 129 35 177 0 93 18 45 29 -78 7 -71 16 -118 23 -123 7 -4 49 -7 93 -6
l80 3 9 58 c5 31 12 57 15 57 3 0 20 -24 37 -53 34 -58 56 -64 107 -26 l29 21
23 -22 c18 -17 30 -21 52 -16 35 9 103 48 125 73 16 17 14 22 -42 88 -33 39
-59 73 -60 76 0 12 160 20 180 9 27 -15 25 -27 -15 -94 -19 -32 -35 -67 -35
-77 0 -11 15 -35 33 -54 l32 -35 155 78 c85 42 169 87 185 98 19 14 52 24 91
28 34 3 99 19 145 36 l84 30 66 113 c59 100 152 227 165 227 3 0 2 -6 -2 -12z
m-674 -46 c0 -8 -32 -42 -40 -42 -9 0 -21 41 -15 50 5 8 55 1 55 -8z m-5202
-260 c-7 -38 -27 -15 -67 80 -61 144 -61 144 8 34 34 -54 61 -105 59 -114z
m66 73 c-4 -8 -10 -15 -15 -15 -5 0 -9 7 -9 15 0 8 7 15 15 15 9 0 12 -6 9
-15z m3941 -19 c4 -18 5 -43 3 -55 -2 -16 -9 -7 -25 34 -20 53 -20 55 -3 55
14 0 21 -10 25 -34z m-4166 -189 l30 -44 -26 -43 -27 -44 -32 134 c-18 74 -33
140 -33 145 0 6 13 -16 29 -48 16 -31 42 -77 59 -100z m-83 -51 c39 -74 45
-93 38 -115 -5 -14 -13 -26 -18 -26 -4 0 -18 32 -31 70 -12 39 -34 102 -49
140 -22 59 -23 66 -7 45 11 -14 41 -65 67 -114z m8523 69 l24 -36 -26 -77
c-14 -42 -49 -128 -78 -191 -55 -121 -60 -147 -39 -198 13 -30 12 -34 -30 -98
l-44 -67 -12 42 c-29 98 -28 108 25 240 28 69 72 191 98 272 27 81 50 147 53
148 3 0 16 -16 29 -35z m-8471 -265 c-9 -14 -14 -16 -20 -7 -13 20 -9 27 12
27 18 0 19 -3 8 -20z m7626 -99 c-4 -17 -16 -36 -26 -42 -11 -6 -19 -7 -16 -2
18 40 42 82 45 79 2 -1 0 -17 -3 -35z m-5734 -130 c22 -33 40 -67 40 -75 0
-23 -31 -96 -40 -96 -5 0 -11 19 -15 43 -4 23 -18 72 -31 108 -28 78 -28 79
-9 79 8 0 32 -27 55 -59z m2150 -500 c0 -44 -4 -82 -8 -85 -4 -2 -46 23 -92
57 l-84 62 69 21 c117 37 115 38 115 -55z"/>
</g>
</svg>
