<svg width="228" height="160" viewBox="0 0 228 160" fill="none" xmlns="http://www.w3.org/2000/svg">
<rect x="8" y="80" width="212" height="72" fill="#363636"/>
<mask id="path-2-outside-1_411_1291" maskUnits="userSpaceOnUse" x="99" y="54" width="30" height="52" fill="black">
<rect fill="white" x="99" y="54" width="30" height="52"/>
<path fill-rule="evenodd" clip-rule="evenodd" d="M111 90L102 90L114 104L126 90L117 90L117 83L111 83L111 90ZM117 70L126 70L114 56L102 70L111 70L111 77L117 77L117 70Z"/>
</mask>
<path fill-rule="evenodd" clip-rule="evenodd" d="M111 90L102 90L114 104L126 90L117 90L117 83L111 83L111 90ZM117 70L126 70L114 56L102 70L111 70L111 77L117 77L117 70Z" fill="#6A6A6A"/>
<path d="M102 90L102 89L99.8258 89L101.241 90.6508L102 90ZM111 90L111 91L112 91L112 90L111 90ZM114 104L113.241 104.651L114 105.537L114.759 104.651L114 104ZM126 90L126.759 90.6508L128.174 89L126 89L126 90ZM117 90L116 90L116 91L117 91L117 90ZM117 83L118 83L118 82L117 82L117 83ZM111 83L111 82L110 82L110 83L111 83ZM126 70L126 71L128.174 71L126.759 69.3492L126 70ZM117 70L117 69L116 69L116 70L117 70ZM114 56L114.759 55.3492L114 54.4634L113.241 55.3492L114 56ZM102 70L101.241 69.3492L99.8258 71L102 71L102 70ZM111 70L112 70L112 69L111 69L111 70ZM111 77L110 77L110 78L111 78L111 77ZM117 77L117 78L118 78L118 77L117 77ZM102 91L111 91L111 89L102 89L102 91ZM114.759 103.349L102.759 89.3492L101.241 90.6508L113.241 104.651L114.759 103.349ZM125.241 89.3492L113.241 103.349L114.759 104.651L126.759 90.6508L125.241 89.3492ZM117 91L126 91L126 89L117 89L117 91ZM116 83L116 90L118 90L118 83L116 83ZM111 84L117 84L117 82L111 82L111 84ZM112 90L112 83L110 83L110 90L112 90ZM126 69L117 69L117 71L126 71L126 69ZM113.241 56.6508L125.241 70.6508L126.759 69.3492L114.759 55.3492L113.241 56.6508ZM102.759 70.6508L114.759 56.6508L113.241 55.3492L101.241 69.3492L102.759 70.6508ZM111 69L102 69L102 71L111 71L111 69ZM112 77L112 70L110 70L110 77L112 77ZM117 76L111 76L111 78L117 78L117 76ZM116 70L116 77L118 77L118 70L116 70Z" fill="#181818" mask="url(#path-2-outside-1_411_1291)"/>
</svg>
